<?xml version="1.0" encoding="utf-8"?>
<!-- Generator: Adobe Illustrator 19.2.1, SVG Export Plug-In . SVG Version: 6.00 Build 0)  -->
<svg version="1.1" id="layer" xmlns="http://www.w3.org/2000/svg" xmlns:xlink="http://www.w3.org/1999/xlink" x="0px" y="0px"
	 viewBox="0 0 652 652" style="enable-background:new 0 0 652 652;" xml:space="preserve">
<path d="M135.8,282.9c-21.1,0-34.6,14.3-34.6,34.1c0,20.9,13.4,34.8,35.8,34.8c9.9,0,21.1-3.4,28-10.6L154.7,331
	c-3.7,3.9-11.5,6.1-17.4,6.1c-11.4,0-18.4-5.8-19.4-13.9h50.9C171.2,296.4,157.6,282.9,135.8,282.9L135.8,282.9z M118.1,309.8
	c2.4-8.5,9.6-12.7,18.3-12.7c9.2,0,15.9,4.2,16.9,12.7H118.1z M201,336.3c-5,0-8.5-3-8.5-9.3v-28.1h18.1V285h-18v-18.5l-16.1,1.7
	v58.9c0,16.3,9.2,24.3,23.4,23.8c4.6,0,9.1-1,13.3-2.8l-4.5-13.7C206.4,335.5,203.7,336.2,201,336.3L201,336.3z M323.2,283.1
	c-6.6,0-13.3,1.2-18.4,9.2l-1.2-7.6h-14.9V350h16.1v-34.3c0-12,7.8-16.5,16.2-16.5c5.3,0,7.6,0.6,10.8,3.4l7.3-14
	C335.6,285,329.9,283.1,323.2,283.1L323.2,283.1z M370.7,283.5c-20.8,0-33.7,15.3-33.7,34c0,18.8,12.7,34,33.9,34
	c21.1,0,34-15.2,34-34C404.8,298.9,391.4,283.5,370.7,283.5L370.7,283.5z M370.8,336.7c-11.8,0-17.7-9.3-17.7-19.2
	c0-9.8,6.1-19.3,17.7-19.3c10.8,0,17.7,9.5,17.7,19.3C388.5,327.4,382.6,336.7,370.8,336.7L370.8,336.7z M460.2,318.2
	c0,9.9-6.7,18.3-16.6,18.3c-10.4,0-15.7-7.5-15.7-17.4v-34.1h-16.1v34.2c0,20.2,11.4,32,27,32c9.1,0,15.3-3.2,22.1-9.8l1,8.9h14.4
	v-65.3h-16V318.2z M522.3,283.8c-8.2,0-14.8,3.3-21.4,9.8l-1.1-8.9h-14.4V350h16v-33.3c0-9.9,6.7-18.3,16.6-18.3
	c10.4,0,15.8,7.6,15.8,17.5V350h16.1v-34.2C549.9,295.3,537.6,283.8,522.3,283.8L522.3,283.8z M610.9,257.6v36.1
	c-3.9-6.7-14.6-10.5-21.4-10.5c-19,0-33.2,11.6-33.2,34.1c0,21.4,14.4,34.1,33.6,34.1c8,0,16-2.7,21-10.4l1,9H627v-92.4H610.9z
	 M590.9,336.6c-10.3,0-18.5-7.8-18.5-19.2c0-11.8,8.2-19,18.5-19c10.6-0.2,19.2,8.5,18.9,19C609.8,329.2,601.1,336.6,590.9,336.6
	L590.9,336.6z M268.5,285.9c-7.7-4.3-23.1-4.6-31.4-2.4c-10.5,2.9-17,11-17.5,21l15.3,3.5c1.2-7.7,3.5-10.2,10-11.3
	c4.8-0.8,11.5-0.6,15.3,3.2c2.1,2.1,2.3,3.1,2,6.6c-0.1,1.7-3.5,2.2-5.4,2.6c-7.2,1.6-18.4,2.4-25.4,4.3
	c-13.9,3.8-15.8,20.6-8.9,29.3c7.2,8.9,25.2,10.9,35.3,4.3c1.5-1,3-2.1,4.9-3.4v6.2h16.6v-16.7c0.1-9.9,0.5-19.8,0.1-29.7
	C279.1,296.1,275,289.4,268.5,285.9L268.5,285.9z M255.9,335c-2.1,1.2-4.5,2-6.8,2.3c-3,0.6-6.2,1.1-9.2,0.5
	c-2.1-0.5-4.2-1.5-5.3-3.3c-0.7-1.1-1-2.4-0.9-3.6c0.1-1.2,0.5-2.4,1.4-3.3c0.9-1.1,2.1-2,3.5-2.5c4.2-1.8,8.9-2.4,13.5-2.9l7.5-0.8
	l1.9-0.2l0.9-0.1c0.3,0,0.4-0.1,0.4,0.3c0,1.1-0.1,2.3-0.3,3.4c-0.1,1.1-0.4,2.2-0.8,3.2C260.7,330.9,258.6,333.4,255.9,335
	L255.9,335z M60.8,351.5c-21.1,0-33.8-15.2-33.8-34c0-18.6,12.9-34,33.7-34h40.4c0,0-1.7,10.6-11.8,14.7H60.9
	c-11.6,0-17.8,9.5-17.8,19.3c0,9.9,6,19.1,17.7,19.1c11.8,0,17.7-9.2,17.7-19.1c0-5.4-2-10.5-5.8-14.3h19.1c2,4.5,2.9,9.4,2.9,14.3
	c0,10.7-4.2,20.2-11.7,26.5c9.3,5.5,11.7,13,11.7,21c0,18.6-14.2,30-33.7,30c-18.2,0-32.2-10.4-33.9-26.6l16.4-1.8
	c0.9,7.8,8.5,12.8,17.5,12.8c9.6,0,17.1-5.2,17.1-14.5c0-9.3-8.7-13.5-17-13.5L60.8,351.5z M60.8,351.5"/>
</svg>
